<svg xmlns="http://www.w3.org/2000/svg" width="160" height="160" viewBox="0 0 160 160" fill="none">
  <defs>
    <linearGradient id="bg" x1="26" y1="20" x2="134" y2="140" gradientUnits="userSpaceOnUse">
      <stop stop-color="#A65A47"/>
      <stop offset="1" stop-color="#6E3328"/>
    </linearGradient>
    <linearGradient id="glow" x1="54" y1="40" x2="108" y2="122" gradientUnits="userSpaceOnUse">
      <stop stop-color="#F7E6C6"/>
      <stop offset="1" stop-color="#D7BA84"/>
    </linearGradient>
    <filter id="shadow" x="8" y="10" width="144" height="144" filterUnits="userSpaceOnUse" color-interpolation-filters="sRGB">
      <feFlood flood-opacity="0" result="BackgroundImageFix"/>
      <feColorMatrix in="SourceAlpha" values="0 0 0 0 0 0 0 0 0 0 0 0 0 0 0 0 0 0 127 0" result="hardAlpha"/>
      <feOffset dy="10"/>
      <feGaussianBlur stdDeviation="9"/>
      <feColorMatrix values="0 0 0 0 0.251 0 0 0 0 0.141 0 0 0 0 0.122 0 0 0 0.25 0"/>
      <feBlend in2="BackgroundImageFix" result="effect1_dropShadow_1_1"/>
      <feBlend in="SourceGraphic" in2="effect1_dropShadow_1_1" result="shape"/>
    </filter>
  </defs>
  <g filter="url(#shadow)">
    <rect x="26" y="20" width="108" height="108" rx="30" fill="url(#bg)"/>
    <path d="M54 88C54 72.536 66.536 60 82 60H106V72H82C73.163 72 66 79.163 66 88V94H54V88Z" fill="#FFF9EF"/>
    <path d="M54 106H66.902L82.738 89.372C84.805 87.202 88.272 87.125 90.434 89.2L96.408 94.935L113.43 75.408L122 81.865L100.737 106.255C98.701 108.59 95.151 108.789 92.866 106.698L86.617 100.978L70.734 117.659C69.222 119.247 67.126 120.145 64.933 120.145H54V106Z" fill="url(#glow)"/>
    <path d="M103.5 44L105.835 51.165L113 53.5L105.835 55.835L103.5 63L101.165 55.835L94 53.5L101.165 51.165L103.5 44Z" fill="#F7E6C6"/>
  </g>
</svg>
