<svg xmlns="http://www.w3.org/2000/svg" width="380" height="96" viewBox="0 0 380 96" fill="none">
  <defs>
    <linearGradient id="markBg" x1="9" y1="4" x2="85" y2="88" gradientUnits="userSpaceOnUse">
      <stop stop-color="#A65A47"/>
      <stop offset="1" stop-color="#6E3328"/>
    </linearGradient>
    <linearGradient id="markFill" x1="28" y1="18" x2="66" y2="76" gradientUnits="userSpaceOnUse">
      <stop stop-color="#F7E6C6"/>
      <stop offset="1" stop-color="#D7BA84"/>
    </linearGradient>
  </defs>
  <rect x="8" y="4" width="76" height="76" rx="22" fill="url(#markBg)"/>
  <path d="M28 52C28 41.507 36.507 33 47 33H64V41H47C40.925 41 36 45.925 36 52V56H28V52Z" fill="#FFF9EF"/>
  <path d="M28 64H37.018L47.858 52.614C49.273 51.128 51.647 51.076 53.126 52.497L57.214 56.421L68.856 43.065L74.72 47.482L60.18 64.163C58.787 65.76 56.359 65.896 54.796 64.465L50.52 60.551L39.65 71.969C38.615 73.055 37.179 73.669 35.676 73.669H28V64Z" fill="url(#markFill)"/>
  <path d="M62.5 22L64.056 26.777L68.833 28.333L64.056 29.889L62.5 34.667L60.944 29.889L56.167 28.333L60.944 26.777L62.5 22Z" fill="#F7E6C6"/>
  <path d="M113.32 40.4V22.04H120.16V40.4H113.32ZM113.32 73V46.64H120.16V73H113.32ZM124.986 73V46.64H131.306L131.866 50.28C133.499 47.48 136.719 45.88 141.206 45.88C146.573 45.88 150.213 48.08 151.959 52.6C153.819 48.38 157.853 45.88 163.053 45.88C170.353 45.88 174.633 50.38 174.633 58.58V73H167.713V59.84C167.713 54.98 165.666 52.16 161.426 52.16C156.999 52.16 154.366 55.4 154.366 60.68V73H147.446V59.84C147.446 54.98 145.399 52.16 141.159 52.16C136.733 52.16 134.099 55.4 134.099 60.68V73H127.179C125.969 73 124.986 72.017 124.986 70.807V73Z" fill="#281915"/>
  <path d="M179.893 73V46.64H186.733V73H179.893ZM183.293 42.08C180.8 42.08 178.973 40.4 178.973 38C178.973 35.6 180.8 33.92 183.293 33.92C185.786 33.92 187.613 35.6 187.613 38C187.613 40.4 185.786 42.08 183.293 42.08Z" fill="#281915"/>
  <path d="M206.755 73.76C198.355 73.76 192.395 68.08 192.395 59.8C192.395 51.52 198.355 45.88 206.755 45.88C214.295 45.88 219.562 50.22 220.529 56.78H213.809C213.075 53.84 210.595 52 206.835 52C201.989 52 199.235 55.24 199.235 59.8C199.235 64.36 201.989 67.64 206.835 67.64C210.569 67.64 213.075 65.76 213.809 62.86H220.529C219.589 69.28 214.162 73.76 206.755 73.76Z" fill="#281915"/>
  <path d="M236.443 73.76C228.416 73.76 222.536 68 222.536 59.8C222.536 51.6 228.416 45.88 236.443 45.88C244.47 45.88 250.35 51.6 250.35 59.8C250.35 68 244.47 73.76 236.443 73.76ZM236.443 67.68C240.71 67.68 243.51 64.52 243.51 59.8C243.51 55.12 240.71 51.96 236.443 51.96C232.176 51.96 229.376 55.12 229.376 59.8C229.376 64.52 232.176 67.68 236.443 67.68Z" fill="#281915"/>
  <path d="M253.98 73V46.64H260.3L260.86 50.6C262.64 47.68 265.92 45.88 270.42 45.88C277.6 45.88 282.1 50.44 282.1 58.56V73H275.18V59.94C275.18 55.08 272.78 52.16 268.3 52.16C263.54 52.16 260.9 55.5 260.9 60.58V73H253.98Z" fill="#281915"/>
  <path d="M301.144 73.76C293.104 73.76 287.824 69.9 287.144 63.74H293.624C294.157 66.56 296.557 68.12 301.064 68.12C305.037 68.12 307.144 66.86 307.144 64.66C307.144 62.62 305.477 61.72 300.224 60.82C292.811 59.56 288.131 57.86 288.131 52.96C288.131 48.3 292.651 45.88 299.344 45.88C306.497 45.88 311.177 48.88 311.824 54.76H305.464C304.864 52.38 302.757 51.28 299.264 51.28C295.837 51.28 294.211 52.36 294.211 54.16C294.211 55.9 295.971 56.64 301.304 57.56C308.957 58.88 313.224 60.92 313.224 65.82C313.224 70.94 308.091 73.76 301.144 73.76Z" fill="#281915"/>
  <path d="M330.327 73.76C322.221 73.76 316.307 68.08 316.307 59.8C316.307 51.52 322.221 45.88 330.247 45.88C338.194 45.88 343.607 51.2 343.607 59.26V61.44H323.027C323.56 65.56 326.267 68.12 330.407 68.12C333.554 68.12 335.781 66.82 336.754 64.52H343.334C341.86 70.04 336.994 73.76 330.327 73.76ZM323.174 56.86H336.707C336.247 53.06 333.52 51.28 330.247 51.28C326.781 51.28 324.127 53.22 323.174 56.86Z" fill="#281915"/>
  <path d="M348.094 73V46.64H354.454L355.014 50.76C356.8 47.7 359.927 46.14 364.054 46.14H365.474V52.4H363.567C358.62 52.4 355.014 54.62 355.014 61.06V73H348.094Z" fill="#281915"/>
</svg>
